<svg width="217" height="63" viewBox="0 0 217 63" fill="none" xmlns="http://www.w3.org/2000/svg">
<path d="M59.4043 13.4141H63.1091V20.8685L70.0735 13.4141H74.9414L67.5438 20.8546L75.321 31.505H70.4773L64.9235 23.6081L63.1117 25.4542V31.505H59.4069L59.4043 13.4141Z" fill="white"/>
<path d="M86.7255 13.4141H90.6391L84.4934 31.505H80.9353L74.8389 13.4141H78.8629L82.7765 27.1487L86.7255 13.4141Z" fill="white"/>
<path d="M110.667 16.6178H101.129V20.4598H109.885V23.6012H101.129V28.2527H111.109V31.505H97.4482V13.4141H110.667V16.6178Z" fill="white"/>
<path d="M116.068 31.505H112.582V13.4141H116.068V31.505Z" fill="white"/>
<path fill-rule="evenodd" clip-rule="evenodd" d="M129.204 20.3799C128.64 19.5137 127.841 18.827 126.902 18.4005C125.912 17.9707 124.842 17.7573 123.764 17.7745C121.988 17.7047 120.262 18.3762 118.997 19.6292C117.692 21.0844 117.03 23.0074 117.161 24.9604C117.161 27.434 117.839 29.2191 119.195 30.3159C120.519 31.4016 122.181 31.9842 123.891 31.9611C125.765 32.0707 127.595 31.3587 128.906 30.0094C129.585 29.364 130.039 28.5163 130.2 27.5919H126.642C126.159 28.6041 125.105 29.2138 123.99 29.1262C123.314 29.1462 122.647 28.9716 122.067 28.6231C121.143 27.9916 120.614 26.9212 120.673 25.8003H130.382C130.413 24.9138 130.374 24.0262 130.267 23.1455C130.128 22.1545 129.764 21.2085 129.204 20.3799ZM120.759 23.4936C120.839 22.7214 121.165 21.9955 121.687 21.4224L121.689 21.419C122.245 20.8868 122.997 20.6113 123.764 20.6587C124.519 20.6338 125.257 20.8907 125.834 21.38C126.42 21.9265 126.756 22.6909 126.763 23.4936H120.759Z" fill="white"/>
<path d="M138.867 22.925C138.808 22.4416 138.636 21.9792 138.365 21.5751C137.93 21.0148 137.244 20.7108 136.539 20.7655C135.425 20.7181 134.426 21.4445 134.123 22.5206C133.867 23.3185 133.75 24.1549 133.778 24.9927C133.751 25.7948 133.868 26.5952 134.123 27.3557C134.429 28.3913 135.403 29.0814 136.477 29.0251C137.129 29.0919 137.774 28.8461 138.218 28.3619C138.584 27.8601 138.801 27.2644 138.843 26.6439H142.402C142.309 27.7388 141.91 28.7851 141.252 29.6633C140.127 31.2093 138.296 32.074 136.392 31.9579C134.245 31.9579 132.665 31.3197 131.654 30.0434C130.592 28.6135 130.056 26.8595 130.136 25.0784C130.017 23.1462 130.615 21.2381 131.813 19.7212C132.991 18.4183 134.69 17.7154 136.44 17.8067C137.893 17.7431 139.329 18.1366 140.548 18.9324C141.613 19.6828 142.243 21.0125 142.439 22.9215L138.867 22.925Z" fill="white"/>
<path d="M142.2 20.7398V18.2487H144.059V14.5176H147.51V18.2487H149.675V20.7398H147.51V27.8089C147.462 28.1645 147.536 28.5258 147.719 28.8341C148.115 29.0218 148.556 29.0918 148.99 29.0358C149.096 29.0358 149.208 29.0358 149.327 29.0298C149.446 29.0237 149.561 29.0203 149.672 29.0116V31.6257L148.021 31.6872C146.373 31.7449 145.248 31.4586 144.645 30.8282C144.214 30.3121 144.004 29.6463 144.059 28.9752V20.739L142.2 20.7398Z" fill="white"/>
<path d="M158.061 17.8126C158.106 17.8167 158.206 17.823 158.361 17.8317V21.4147C158.141 21.3905 157.945 21.374 157.774 21.3654C157.602 21.3576 157.464 21.3532 157.358 21.3532C155.956 21.3532 155.014 21.8116 154.533 22.7283C154.22 23.4808 154.082 24.2953 154.13 25.1094V31.504H150.62V18.1261H153.946V20.4579C154.316 19.7779 154.791 19.1608 155.353 18.6292C156.074 18.0573 156.977 17.7653 157.896 17.8066C157.963 17.8066 158.017 17.8083 158.061 17.8126Z" fill="white"/>
<path fill-rule="evenodd" clip-rule="evenodd" d="M165.145 31.9592C167.436 31.9592 169.144 31.2622 170.269 29.8681C172.518 26.8986 172.518 22.7882 170.269 19.8187C169.144 18.4038 167.436 17.6967 165.145 17.6973C162.854 17.6978 161.146 18.405 160.021 19.8187C157.772 22.7882 157.772 26.8986 160.021 29.8681C161.146 31.2622 162.854 31.9592 165.145 31.9592ZM167.481 21.7401C168.573 23.6597 168.573 26.0159 167.481 27.9355C166.894 28.6275 166.035 29.0263 165.13 29.0263C164.224 29.0263 163.365 28.6275 162.778 27.9355C161.678 26.0179 161.678 23.6577 162.778 21.7401C163.367 21.0515 164.226 20.6553 165.13 20.6553C166.033 20.6553 166.892 21.0515 167.481 21.7401Z" fill="white"/>
<path d="M183.947 18.894C184.82 19.6179 185.257 20.8186 185.257 22.4961V31.5013H181.686V23.3619C181.714 22.8079 181.619 22.2545 181.407 21.7419C181.03 21.0326 180.261 20.6247 179.465 20.7115C178.418 20.6325 177.441 21.243 177.049 22.2207C176.802 22.8704 176.686 23.5631 176.709 24.2581V31.4995H173.225V18.1502H176.6V20.1019C176.938 19.5402 177.365 19.0384 177.866 18.6169C178.658 18.0535 179.612 17.7688 180.582 17.8073C181.797 17.7558 182.99 18.1411 183.947 18.894Z" fill="white"/>
<path fill-rule="evenodd" clip-rule="evenodd" d="M187.292 16.5307H190.829V13.3027H187.292V16.5307ZM190.829 18.1266H187.292V31.5045H190.829V18.1266Z" fill="white"/>
<path d="M200.927 22.925C200.868 22.4416 200.696 21.979 200.425 21.575C199.99 21.0148 199.304 20.7107 198.598 20.7654C197.485 20.7181 196.485 21.4445 196.182 22.5206C195.926 23.3185 195.809 24.1548 195.837 24.9927C195.81 25.7947 195.927 26.5952 196.182 27.3557C196.489 28.3912 197.462 29.0814 198.537 29.0251C199.189 29.0921 199.834 28.8462 200.277 28.3618C200.643 27.86 200.86 27.2644 200.903 26.6439H204.462C204.368 27.7388 203.969 28.7852 203.311 29.6633C202.186 31.2092 200.354 32.074 198.451 31.9579C196.304 31.9579 194.724 31.3197 193.712 30.0434C192.651 28.6135 192.115 26.8595 192.194 25.0784C192.076 23.1462 192.673 21.2382 193.872 19.7212C195.05 18.4184 196.748 17.7155 198.499 17.8067C199.952 17.7429 201.388 18.1365 202.607 18.9324C203.672 19.6828 204.302 21.0125 204.498 22.9215L200.927 22.925Z" fill="white"/>
<path d="M208.332 27.2323C208.352 27.7133 208.519 28.1764 208.812 28.558C209.489 29.1054 210.356 29.3575 211.22 29.2576C211.783 29.2826 212.343 29.1778 212.859 28.9511C213.208 28.7966 213.443 28.4602 213.468 28.0781C213.493 27.6961 213.304 27.3318 212.978 27.1327C211.799 26.6657 210.578 26.3123 209.331 26.0772C208.169 25.8637 207.073 25.3804 206.13 24.6658C205.482 24.0407 205.142 23.1605 205.201 22.2604C205.196 21.0364 205.727 19.8719 206.653 19.0757C207.798 18.1267 209.259 17.6505 210.741 17.744C212.166 17.6824 213.58 18.0293 214.816 18.7441C215.938 19.5367 216.612 20.8221 216.628 22.1989H213.142C213.118 21.8145 212.986 21.4446 212.763 21.1313C212.251 20.6059 211.529 20.3437 210.801 20.4196C210.236 20.3717 209.67 20.4957 209.176 20.7754C208.885 20.9547 208.703 21.268 208.691 21.6101C208.672 21.9789 208.877 22.3227 209.209 22.4812C210.392 22.9067 211.61 23.2311 212.848 23.451C214.001 23.662 215.078 24.1742 215.971 24.936C216.65 25.5929 217.023 26.5061 216.998 27.4523C217.031 28.7049 216.486 29.9028 215.522 30.6985C214.538 31.5366 213.016 31.956 210.957 31.9566C208.857 31.9566 207.307 31.5127 206.306 30.6249C205.324 29.7774 204.772 28.5315 204.805 27.2315L208.332 27.2323Z" fill="white"/>
<path fill-rule="evenodd" clip-rule="evenodd" d="M62.6612 42.4383C62.4213 42.0839 62.0912 41.8005 61.7052 41.6175C61.3055 41.4116 60.8629 41.3036 60.4136 41.3023C59.5906 41.2749 58.8 41.6256 58.2661 42.2547C57.697 42.9525 57.4045 43.8364 57.4448 44.7372C57.391 45.6178 57.6838 46.4843 58.2601 47.1504C58.7684 47.7091 59.4907 48.0227 60.2445 48.012C60.5348 48.0155 60.8245 47.9838 61.1073 47.9176C61.5553 47.8199 61.9672 47.5982 62.2962 47.2777C62.5042 47.0722 62.6789 46.8353 62.8139 46.5755C62.9536 46.3355 63.0466 46.071 63.0883 45.7962H62.0434C61.9706 46.0703 61.8374 46.3245 61.6534 46.54C61.3181 46.9118 60.8352 47.1143 60.336 47.0924C59.8302 47.131 59.3391 46.9113 59.0297 46.508C58.7276 46.0476 58.5706 45.5066 58.5793 44.9554H63.1771C63.1902 44.4874 63.1587 44.0191 63.0831 43.557C63.0232 43.1583 62.8794 42.7769 62.6612 42.4383ZM61.7872 43.0003C61.9626 43.3445 62.0643 43.7217 62.0857 44.1077H58.6069C58.6073 43.6098 58.7918 43.1297 59.1246 42.7604C59.4344 42.4146 59.8788 42.2212 60.342 42.2305C60.9316 42.1844 61.4947 42.4843 61.7872 43.0003Z" fill="white"/>
<path d="M64.7646 41.442H65.8155V42.3426C66.0116 42.0849 66.2421 41.8556 66.5006 41.6611C66.8511 41.4203 67.2673 41.2941 67.6921 41.3C68.1285 41.2787 68.5587 41.4107 68.9086 41.6732C69.1065 41.8484 69.267 42.062 69.3806 42.301C69.5915 41.9843 69.8772 41.7249 70.2123 41.546C70.5457 41.3793 70.914 41.2952 71.2865 41.3009C71.9984 41.225 72.685 41.5906 73.0215 42.2248C73.2045 42.6463 73.2892 43.1041 73.2691 43.5635V47.7846H72.1656V43.3782C72.2044 43.0543 72.0875 42.7313 71.8507 42.5079C71.6271 42.3455 71.3561 42.2621 71.0802 42.2707C70.68 42.2641 70.2931 42.4151 70.0026 42.6915C69.6645 43.0762 69.5011 43.5847 69.5514 44.0951V47.7846H68.4712V43.6457C68.4911 43.3242 68.4389 43.0023 68.3185 42.7036C68.1289 42.392 67.7767 42.2188 67.4151 42.2594C67.003 42.2641 66.6094 42.4322 66.3203 42.727C65.9376 43.2034 65.7603 43.8134 65.8276 44.4216V47.7846H64.7655L64.7646 41.442Z" fill="white"/>
<path fill-rule="evenodd" clip-rule="evenodd" d="M76.0226 41.4733H74.9873V50.3157H76.0451V47.0755C76.2225 47.3115 76.4363 47.5176 76.6784 47.686C77.0408 47.9053 77.459 48.0142 77.882 47.9994C78.4648 48.0085 79.0319 47.8089 79.4816 47.4366C80.2756 46.6681 80.6752 45.5769 80.5661 44.4753C80.6224 43.6216 80.3539 42.7783 79.8146 42.1157C79.3558 41.5841 78.6871 41.2819 77.9864 41.2897C77.5385 41.2791 77.0978 41.4031 76.7206 41.6456C76.4478 41.8222 76.2109 42.0494 76.0226 42.3149V41.4733ZM79.4781 44.5766C79.5261 45.2374 79.3521 45.8953 78.9837 46.4452V46.4486C78.6332 46.9014 78.0702 47.1343 77.5035 47.0608C76.9369 46.9873 76.4514 46.6184 76.2271 46.091C76.0713 45.6935 75.9967 45.2686 76.008 44.8415C75.9931 44.3309 76.0672 43.8216 76.2271 43.3366C76.4411 42.6867 77.0404 42.2431 77.7223 42.2298C78.4042 42.2166 79.0201 42.6366 79.259 43.2778C79.4139 43.6927 79.4883 44.1336 79.4781 44.5766Z" fill="white"/>
<path fill-rule="evenodd" clip-rule="evenodd" d="M87.4566 44.4777C87.5205 43.5952 87.2172 42.7256 86.6188 42.0758C86.0731 41.5369 85.3333 41.2427 84.568 41.2601C83.7422 41.226 82.9468 41.575 82.411 42.2065C81.8451 42.9293 81.5597 43.8335 81.6077 44.7513C81.563 45.6103 81.8341 46.4558 82.3696 47.1273C82.8856 47.7205 83.6426 48.0459 84.4265 48.0114C85.3084 48.0805 86.167 47.7058 86.718 47.0113C87.233 46.2702 87.4923 45.3805 87.4566 44.4777ZM86.347 44.508C86.3554 45.1246 86.2226 45.7349 85.9588 46.2918C85.6931 46.831 85.1233 47.1496 84.5265 47.0927C83.9766 47.1346 83.4465 46.8775 83.1375 46.419C82.8304 45.9122 82.6783 45.326 82.7 44.7332C82.6816 44.1051 82.8327 43.4836 83.1375 42.9347C83.4254 42.4396 83.9678 42.1508 84.5378 42.1892C85.178 42.1407 85.7835 42.4875 86.0675 43.0655C86.2708 43.5181 86.3665 44.0119 86.347 44.508Z" fill="white"/>
<path d="M89.4962 41.4434L90.7118 46.4421L91.9447 41.4434H93.1371L94.3761 46.4127L95.6703 41.4434H96.7323L94.8963 47.7868H93.7928L92.5064 42.8764L91.2614 47.7868H90.1579L88.334 41.4434H89.4962Z" fill="white"/>
<path fill-rule="evenodd" clip-rule="evenodd" d="M102.833 42.4383C102.593 42.0839 102.263 41.8005 101.877 41.6174C101.477 41.4115 101.034 41.3035 100.584 41.3023C99.761 41.275 98.9707 41.6257 98.4371 42.2547C97.868 42.9524 97.5755 43.8364 97.6157 44.7372C97.5617 45.6178 97.8545 46.4845 98.4311 47.1504C98.9394 47.7091 99.6617 48.0227 100.415 48.012C100.706 48.0155 100.995 47.9838 101.278 47.9176C101.727 47.8201 102.139 47.5984 102.468 47.2777C102.676 47.0722 102.851 46.8352 102.986 46.5755C103.125 46.3354 103.218 46.071 103.26 45.7962H102.215C102.142 46.0703 102.009 46.3245 101.825 46.54C101.49 46.9117 101.007 47.1142 100.508 47.0924C100.002 47.131 99.511 46.9113 99.2015 46.5079C98.8993 46.0477 98.7423 45.5066 98.7512 44.9554H103.349C103.362 44.4873 103.33 44.0191 103.255 43.557C103.195 43.1583 103.051 42.7769 102.833 42.4383ZM101.959 43.0003C102.134 43.3445 102.236 43.7217 102.258 44.1077H98.7788C98.779 43.6098 98.9635 43.1296 99.2964 42.7604C99.6062 42.4145 100.051 42.2211 100.514 42.2305C101.103 42.1844 101.667 42.4843 101.959 43.0003Z" fill="white"/>
<path d="M104.967 41.4428H105.976V42.539C106.122 42.2403 106.328 41.975 106.58 41.7597C106.877 41.4646 107.278 41.2995 107.696 41.3008C107.716 41.3008 107.749 41.3008 107.797 41.3068C107.844 41.3129 107.924 41.319 108.038 41.3302V42.4559C107.975 42.4446 107.917 42.436 107.866 42.4325C107.815 42.429 107.754 42.4264 107.693 42.4264C107.224 42.3982 106.768 42.5902 106.459 42.946C106.177 43.2787 106.023 43.7028 106.028 44.14V47.7854H104.966L104.967 41.4428Z" fill="white"/>
<path fill-rule="evenodd" clip-rule="evenodd" d="M110.284 39.0859H109.204V40.2982H110.284V39.0859ZM110.284 41.4723H109.204V47.7863H110.284V41.4723Z" fill="white"/>
<path d="M112.13 41.4429H113.14V42.3434C113.393 42.01 113.718 41.737 114.089 41.5442C114.437 41.3789 114.819 41.2957 115.204 41.3009C115.945 41.2166 116.662 41.5885 117.022 42.243C117.218 42.7078 117.307 43.211 117.281 43.715V47.7846H116.201V43.7868C116.213 43.4659 116.154 43.1462 116.028 42.8508C115.844 42.4571 115.434 42.2207 115.002 42.2586C114.792 42.2528 114.584 42.2788 114.382 42.3356C114.081 42.4286 113.813 42.6094 113.614 42.8552C113.45 43.0408 113.331 43.2631 113.269 43.5037C113.207 43.8187 113.18 44.1396 113.189 44.4605V47.7855H112.126L112.13 41.4429Z" fill="white"/>
<path fill-rule="evenodd" clip-rule="evenodd" d="M123.221 42.3027C123.048 42.0716 122.842 41.8673 122.61 41.6966C122.226 41.4475 121.777 41.3194 121.32 41.3286C120.595 41.3268 119.908 41.6559 119.454 42.223C118.9 42.9291 118.624 43.8141 118.677 44.7107C118.592 45.5885 118.869 46.4628 119.444 47.13C120.246 47.8781 121.417 48.0727 122.416 47.6244C122.729 47.4535 122.991 47.2048 123.18 46.9023C123.226 47.516 123.157 48.1329 122.975 48.7206C122.687 49.1567 122.236 49.4571 121.723 49.5532C121.211 49.6493 120.682 49.5329 120.257 49.2306C120.091 49.0476 119.985 48.818 119.952 48.5726H118.872C118.886 49.1489 119.175 49.6835 119.649 50.0091C120.161 50.3288 120.757 50.4885 121.36 50.468C122.373 50.5794 123.354 50.0706 123.849 49.177C124.11 48.5775 124.231 47.9257 124.201 47.272V41.5026H123.221V42.3027ZM121.512 42.2715C121.987 42.2611 122.44 42.471 122.739 42.8404C123.098 43.3469 123.269 43.9638 123.221 44.5834C123.23 45.0526 123.142 45.5187 122.962 45.9515C122.707 46.6086 122.06 47.0275 121.359 46.9906C120.904 47.0054 120.471 46.7962 120.199 46.4304C119.88 45.9488 119.729 45.3751 119.768 44.7982C119.752 44.2984 119.825 43.7998 119.985 43.3262C120.196 42.6668 120.823 42.2334 121.512 42.2715Z" fill="white"/>
<path d="M133.61 41.4434H134.784C134.634 41.8474 134.302 42.776 133.786 44.2289C133.401 45.3188 133.079 46.2075 132.819 46.895C132.477 47.9185 132.043 48.9093 131.525 49.8554C131.209 50.2386 130.724 50.4384 130.231 50.3879C130.116 50.3899 130 50.3838 129.886 50.3698C129.785 50.3537 129.686 50.3321 129.588 50.3048V49.3342C129.72 49.3733 129.853 49.4048 129.988 49.4285C130.061 49.4395 130.134 49.4453 130.207 49.4459C130.357 49.4566 130.507 49.4226 130.638 49.348C130.73 49.2833 130.809 49.202 130.871 49.1082C130.89 49.077 130.957 48.9151 131.083 48.6241C131.209 48.3332 131.293 48.1159 131.348 47.9739L129.012 41.4442H130.22L131.913 46.6118L133.61 41.4434Z" fill="white"/>
<path fill-rule="evenodd" clip-rule="evenodd" d="M141.363 44.4777C141.426 43.5953 141.123 42.726 140.525 42.0757C139.979 41.5371 139.24 41.243 138.474 41.2601C137.649 41.2261 136.853 41.5751 136.317 42.2065C135.752 42.9293 135.467 43.8335 135.515 44.7513C135.47 45.6101 135.741 46.4555 136.276 47.1273C136.792 47.7205 137.549 48.0458 138.333 48.0114C139.215 48.0806 140.074 47.7059 140.624 47.0113C141.139 46.2702 141.399 45.3805 141.363 44.4777ZM140.252 44.508C140.26 45.1245 140.128 45.7348 139.864 46.2917C139.599 46.831 139.029 47.1496 138.432 47.0927C137.882 47.1346 137.352 46.8775 137.043 46.419C136.736 45.9121 136.584 45.326 136.606 44.7331C136.587 44.1051 136.739 43.4837 137.043 42.9347C137.331 42.4393 137.874 42.1505 138.444 42.1892C139.084 42.141 139.689 42.4878 139.972 43.0655C140.176 43.518 140.272 44.0119 140.252 44.508Z" fill="white"/>
<path d="M143.97 41.4433V45.6541C143.96 45.9265 144.012 46.1976 144.12 46.4473C144.313 46.8326 144.722 47.0589 145.149 47.0162C145.808 47.058 146.412 46.6491 146.621 46.0204C146.78 45.5501 146.852 45.0544 146.833 44.5579V41.4407H147.895V47.7842H146.892L146.904 46.8482C146.774 47.0798 146.603 47.2853 146.399 47.4543C145.992 47.7898 145.478 47.9666 144.951 47.9522C144.224 48.0335 143.516 47.6785 143.145 47.0456C142.954 46.6404 142.865 46.1944 142.886 45.7468V41.4355L143.97 41.4433Z" fill="white"/>
<path d="M149.901 41.4428H150.91V42.539C151.057 42.2401 151.264 41.9749 151.518 41.7597C151.815 41.4645 152.216 41.2995 152.634 41.3008C152.654 41.3008 152.686 41.3008 152.734 41.3069C152.781 41.3129 152.862 41.319 152.975 41.3302V42.4559C152.918 42.4452 152.861 42.4374 152.803 42.4325C152.75 42.4325 152.692 42.4264 152.63 42.4264C152.161 42.3984 151.706 42.5903 151.397 42.946C151.115 43.2786 150.961 43.7028 150.966 44.14V47.7854H149.904L149.901 41.4428Z" fill="white"/>
<path fill-rule="evenodd" clip-rule="evenodd" d="M162.599 42.4383C162.359 42.0838 162.029 41.8003 161.643 41.6175C161.244 41.4119 160.802 41.3039 160.353 41.3023C159.53 41.2749 158.739 41.6256 158.206 42.2547C157.637 42.9526 157.344 43.8365 157.384 44.7372C157.331 45.6178 157.623 46.4842 158.2 47.1504C158.708 47.709 159.43 48.0226 160.184 48.012C160.474 48.0155 160.764 47.9838 161.047 47.9176C161.495 47.8198 161.907 47.5982 162.236 47.2777C162.444 47.0725 162.619 46.8355 162.753 46.5755C162.893 46.3355 162.986 46.071 163.028 45.7962H161.983C161.911 46.0705 161.777 46.3248 161.593 46.54C161.258 46.9118 160.775 47.1143 160.275 47.0924C159.77 47.1312 159.278 46.9114 158.969 46.508C158.666 46.0478 158.509 45.5067 158.518 44.9554H163.116C163.128 44.4874 163.097 44.0191 163.022 43.557C162.961 43.1582 162.817 42.7769 162.599 42.4383ZM161.725 43.0003C161.9 43.3446 162.002 43.7218 162.023 44.1077H158.545C158.545 43.6098 158.729 43.1296 159.062 42.7604C159.372 42.4146 159.816 42.2211 160.28 42.2305C160.869 42.1846 161.432 42.4845 161.725 43.0003Z" fill="white"/>
<path d="M164.731 39.0859H165.794V47.7863H164.731V39.0859Z" fill="white"/>
<path fill-rule="evenodd" clip-rule="evenodd" d="M172.489 42.4383C172.249 42.0837 171.919 41.8002 171.533 41.6174C171.133 41.4117 170.691 41.3037 170.242 41.3023C169.419 41.275 168.629 41.6257 168.095 42.2547C167.526 42.9525 167.234 43.8365 167.274 44.7372C167.22 45.6177 167.513 46.4842 168.089 47.1504C168.598 47.7089 169.32 48.0225 170.074 48.012C170.364 48.0155 170.654 47.9838 170.936 47.9176C171.385 47.8199 171.797 47.5983 172.126 47.2777C172.334 47.0723 172.509 46.8353 172.644 46.5755C172.783 46.3354 172.877 46.071 172.918 45.7962H171.873C171.801 46.0705 171.668 46.3248 171.483 46.54C171.148 46.9118 170.665 47.1143 170.166 47.0924C169.66 47.1312 169.169 46.9114 168.86 46.5079C168.557 46.0479 168.4 45.5067 168.408 44.9554H173.004C173.017 44.4874 172.986 44.0192 172.911 43.557C172.851 43.1582 172.707 42.7768 172.489 42.4383ZM171.615 43.0003C171.79 43.3446 171.891 43.7217 171.913 44.1077H168.434C168.435 43.6098 168.619 43.1297 168.952 42.7604C169.262 42.4144 169.706 42.221 170.169 42.2305C170.759 42.1844 171.322 42.4843 171.615 43.0003Z" fill="white"/>
<path d="M178.768 41.7799C179.27 42.2422 179.561 42.891 179.574 43.5748H178.538C178.489 43.2157 178.34 42.8779 178.107 42.6007C177.821 42.3181 177.426 42.1762 177.027 42.2128C176.379 42.1927 175.792 42.5943 175.575 43.2068C175.372 43.7121 175.275 44.2539 175.292 44.7983C175.273 45.3598 175.412 45.9153 175.693 46.4011C175.952 46.7626 176.352 46.9961 176.793 47.0432C177.234 47.0904 177.674 46.9465 178.003 46.6479C178.281 46.337 178.466 45.9537 178.537 45.5421H179.573C179.553 46.2289 179.253 46.8774 178.743 47.3357C178.233 47.7941 177.558 48.0222 176.876 47.9666C176.111 47.9953 175.377 47.6583 174.899 47.0583C174.394 46.412 174.133 45.6072 174.161 44.7862C174.105 43.8502 174.392 42.9258 174.97 42.1886C175.48 41.5813 176.238 41.2393 177.029 41.2586C177.651 41.2308 178.263 41.4145 178.768 41.7799Z" fill="white"/>
<path d="M181.09 39.6719H182.164V41.4452H183.174V42.3111H182.164V46.4509C182.142 46.6309 182.231 46.8064 182.389 46.8951C182.52 46.9476 182.661 46.9701 182.802 46.9609C182.853 46.9609 182.908 46.9609 182.968 46.9609C183.027 46.9609 183.095 46.9522 183.175 46.941V47.7878C183.05 47.8236 182.923 47.8493 182.794 47.8649C182.651 47.8813 182.507 47.8891 182.363 47.8882C181.984 47.9363 181.607 47.7933 181.354 47.5064C181.166 47.2111 181.073 46.8645 181.088 46.5141V42.3111H180.233V41.4452H181.088L181.09 39.6719Z" fill="white"/>
<path d="M184.508 41.4428H185.516V42.539C185.662 42.2403 185.868 41.975 186.12 41.7597C186.417 41.4646 186.818 41.2995 187.236 41.3008C187.255 41.3008 187.289 41.3008 187.337 41.3068C187.384 41.3129 187.464 41.319 187.578 41.3302V42.4559C187.521 42.4452 187.464 42.4374 187.406 42.4325C187.352 42.4325 187.294 42.4264 187.233 42.4264C186.764 42.3981 186.308 42.59 185.999 42.946C185.717 43.2787 185.563 43.7028 185.568 44.14V47.7854H184.506L184.508 41.4428Z" fill="white"/>
<path fill-rule="evenodd" clip-rule="evenodd" d="M194.162 44.4777C194.225 43.5953 193.922 42.726 193.324 42.0758C192.778 41.5372 192.039 41.243 191.274 41.2601C190.448 41.226 189.653 41.575 189.117 42.2065C188.551 42.9293 188.266 43.8335 188.314 44.7513C188.269 45.6103 188.54 46.4558 189.076 47.1273C189.592 47.7205 190.349 48.0459 191.133 48.0114C192.014 48.0805 192.873 47.7058 193.423 47.0113C193.938 46.2702 194.198 45.3805 194.162 44.4777ZM193.052 44.508C193.061 45.1246 192.928 45.7348 192.664 46.2918C192.398 46.8308 191.828 47.1494 191.232 47.0927C190.682 47.1346 190.152 46.8775 189.843 46.419C189.536 45.9122 189.383 45.326 189.405 44.7332C189.387 44.1051 189.538 43.4837 189.843 42.9347C190.13 42.4393 190.673 42.1504 191.243 42.1892C191.883 42.1406 192.488 42.4875 192.772 43.0655C192.976 43.518 193.072 44.0119 193.052 44.508Z" fill="white"/>
<path d="M195.709 41.443H196.718V42.3435C196.972 42.0101 197.296 41.7371 197.667 41.5443C198.016 41.3791 198.397 41.2959 198.783 41.301C199.523 41.2164 200.241 41.5884 200.601 42.243C200.796 42.7078 200.885 43.2111 200.859 43.715V47.7847H199.779V43.7869C199.791 43.4659 199.732 43.1463 199.607 42.8509C199.422 42.4568 199.011 42.2204 198.579 42.2586C198.37 42.2529 198.16 42.2789 197.959 42.3357C197.657 42.4289 197.39 42.6097 197.192 42.8552C197.027 43.0412 196.909 43.2634 196.847 43.5038C196.785 43.8188 196.759 44.1397 196.767 44.4606V47.7856H195.705L195.709 41.443Z" fill="white"/>
<path fill-rule="evenodd" clip-rule="evenodd" d="M203.753 39.0859H202.673V40.2982H203.753V39.0859ZM203.753 41.4723H202.673V47.7863H203.753V41.4723Z" fill="white"/>
<path d="M209.775 41.7798C210.277 42.2422 210.568 42.891 210.581 43.5748H209.545C209.496 43.2156 209.347 42.8778 209.114 42.6007C208.829 42.3181 208.434 42.1762 208.035 42.2128C207.387 42.1924 206.8 42.5941 206.582 43.2068C206.379 43.712 206.283 44.2539 206.299 44.7983C206.28 45.3597 206.419 45.915 206.7 46.401C206.959 46.7626 207.359 46.9961 207.8 47.0433C208.242 47.0904 208.682 46.9465 209.011 46.6478C209.289 46.3371 209.475 45.9538 209.545 45.5421H210.581C210.561 46.2288 210.261 46.8771 209.751 47.3354C209.241 47.7938 208.566 48.0219 207.884 47.9666C207.118 47.9955 206.384 47.6585 205.906 47.0583C205.401 46.4119 205.14 45.6071 205.169 44.7862C205.112 43.8501 205.4 42.9257 205.978 42.1885C206.488 41.5813 207.246 41.2393 208.037 41.2586C208.658 41.231 209.271 41.4147 209.775 41.7798Z" fill="white"/>
<path d="M212.516 45.7967C212.526 46.0896 212.62 46.3734 212.787 46.614C213.156 46.9977 213.681 47.1893 214.209 47.1336C214.579 47.1408 214.945 47.0513 215.27 46.8738C215.564 46.7207 215.743 46.4097 215.728 46.0772C215.735 45.8167 215.593 45.5751 215.362 45.4555C215.066 45.3209 214.756 45.2196 214.438 45.1533L213.58 44.9403C213.157 44.853 212.75 44.7012 212.372 44.49C211.937 44.2518 211.669 43.7916 211.676 43.2942C211.658 42.7331 211.9 42.1952 212.331 41.837C212.832 41.4444 213.457 41.2467 214.092 41.2802C214.882 41.2063 215.66 41.5197 216.18 42.1218C216.437 42.4486 216.574 42.8544 216.568 43.2709H215.565C215.545 43.032 215.455 42.8043 215.306 42.6171C214.951 42.3 214.48 42.1478 214.007 42.198C213.68 42.176 213.354 42.2565 213.074 42.4284C212.872 42.5633 212.753 42.7916 212.757 43.0345C212.761 43.316 212.922 43.5716 213.174 43.6952C213.396 43.817 213.636 43.9046 213.884 43.9549L214.599 44.1281C215.144 44.2293 215.671 44.4111 216.162 44.6675C216.583 44.9538 216.82 45.4437 216.783 45.9525C216.786 46.5109 216.55 47.0437 216.135 47.4159C215.58 47.8684 214.873 48.0892 214.16 48.0324C213.426 48.1081 212.694 47.8755 212.138 47.3899C211.739 46.9557 211.512 46.3898 211.5 45.7992L212.516 45.7967Z" fill="white"/>
<rect x="57.8359" y="35.0098" width="158.74" height="0.839907" fill="#698CB8"/>
<path fill-rule="evenodd" clip-rule="evenodd" d="M2.7369 40.461C6.3467 49.2071 14.8507 54.9097 24.2836 54.9097C37.1581 54.8954 47.5913 44.4247 47.6056 31.504C47.6056 22.0373 41.9234 13.5028 33.2085 9.87999C24.4937 6.25724 14.4625 8.25973 7.79247 14.9537C1.12243 21.6477 -0.8729 31.7149 2.7369 40.461ZM3.67853 31.504C3.67853 20.0833 12.9037 10.825 24.2836 10.825C35.6581 10.8379 44.8758 20.0887 44.8887 31.504C44.8887 42.9248 35.6635 52.1831 24.2836 52.1831C12.9037 52.1831 3.67853 42.9248 3.67853 31.504Z" fill="white" fill-opacity="0.5"/>
<path d="M21.2979 0.000865883C13.4006 -0.00902488 5.79193 2.98008 0 8.3679C11.819 -0.819081 28.6326 0.389369 39.0265 11.1729C49.4204 21.9563 50.0655 38.8612 40.524 50.411C30.9825 61.9608 14.3102 64.4564 1.82566 56.2036C12.614 64.7694 27.7029 65.2869 39.0487 57.4801C50.3945 49.6734 55.3528 35.3618 51.2805 22.1749C47.2081 8.98803 35.0542 -0.000932971 21.2979 0V0.000865883Z" fill="white"/>
<path d="M15.4512 31.5044V18.0616C15.4513 17.1542 15.9337 16.3158 16.7166 15.862C17.4996 15.4082 18.4643 15.408 19.2474 15.8613L30.8476 22.5832L42.4478 29.3051C43.2311 29.7589 43.7136 30.5976 43.7136 31.5053C43.7136 32.4129 43.2311 33.2517 42.4478 33.7055L30.8476 40.4273L19.2474 47.1492C18.4643 47.6026 17.4996 47.6023 16.7166 47.1485C15.9337 46.6948 15.4513 45.8564 15.4512 44.949L15.4512 31.5044Z" fill="white"/>
</svg>
